<svg xmlns="http://www.w3.org/2000/svg" xmlns:xlink="http://www.w3.org/1999/xlink" width="2000" zoomAndPan="magnify" viewBox="0 0 1500 1499.999933" height="2000" preserveAspectRatio="xMidYMid meet" version="1.0"><defs><g/><clipPath id="e501a99c51"><path d="M 579 506.148438 L 920.824219 506.148438 L 920.824219 807.648438 L 579 807.648438 Z M 579 506.148438 " clip-rule="nonzero"/></clipPath><clipPath id="95ca6ca7da"><path d="M 693.292969 645.398438 L 806.542969 645.398438 L 806.542969 807.398438 L 693.292969 807.398438 Z M 693.292969 645.398438 " clip-rule="nonzero"/></clipPath><clipPath id="3870383774"><rect x="0" width="361" y="0" height="166"/></clipPath></defs><rect x="-150" width="1800" fill="#ffffff" y="-149.999993" height="1799.99992" fill-opacity="1"/><rect x="-150" width="1800" fill="#b4dffc" y="-149.999993" height="1799.99992" fill-opacity="1"/><g fill="#2c6bd6" fill-opacity="1"><g transform="translate(749.999969, 967.946849)"><g><path d="M 8.75 0 L 8.75 -100.6875 L 75.421875 -100.6875 L 75.421875 -83.140625 L 30.046875 -83.140625 L 30.046875 -59.140625 L 71 -59.140625 L 71 -41.59375 L 30.046875 -41.59375 L 30.046875 0 Z M 8.75 0 "/></g></g></g><g fill="#2c6bd6" fill-opacity="1"><g transform="translate(818.650392, 967.946849)"><g><path d="M 8.359375 0 L 8.359375 -75.515625 L 29.296875 -75.515625 L 29.296875 0 Z M 18.875 -85.25 C 15.789062 -85.25 13.132812 -86.289062 10.90625 -88.375 C 8.675781 -90.457031 7.5625 -92.957031 7.5625 -95.875 C 7.5625 -98.789062 8.675781 -101.28125 10.90625 -103.34375 C 13.132812 -105.414062 15.789062 -106.453125 18.875 -106.453125 C 21.988281 -106.453125 24.660156 -105.414062 26.890625 -103.34375 C 29.117188 -101.28125 30.234375 -98.789062 30.234375 -95.875 C 30.234375 -92.957031 29.117188 -90.457031 26.890625 -88.375 C 24.660156 -86.289062 21.988281 -85.25 18.875 -85.25 Z M 18.875 -85.25 "/></g></g></g><g fill="#2c6bd6" fill-opacity="1"><g transform="translate(843.987494, 967.946849)"><g><path d="M 29.296875 -43.65625 L 29.296875 0 L 8.359375 0 L 8.359375 -75.515625 L 28.3125 -75.515625 L 28.3125 -62.203125 L 29.203125 -62.203125 C 30.910156 -66.585938 33.722656 -70.066406 37.640625 -72.640625 C 41.554688 -75.210938 46.316406 -76.5 51.921875 -76.5 C 59.785156 -76.5 66.09375 -73.96875 70.84375 -68.90625 C 75.601562 -63.84375 77.984375 -56.898438 77.984375 -48.078125 L 77.984375 0 L 57.03125 0 L 57.03125 -44.34375 C 57.0625 -48.96875 55.878906 -52.582031 53.484375 -55.1875 C 51.097656 -57.789062 47.804688 -59.09375 43.609375 -59.09375 C 39.378906 -59.09375 35.945312 -57.738281 33.3125 -55.03125 C 30.675781 -52.332031 29.335938 -48.539062 29.296875 -43.65625 Z M 29.296875 -43.65625 "/></g></g></g><g fill="#2c6bd6" fill-opacity="1"><g transform="translate(917.750954, 967.946849)"><g><path d="M 36.1875 1.234375 C 30.445312 1.234375 25.265625 -0.25 20.640625 -3.21875 C 16.023438 -6.1875 12.359375 -10.5625 9.640625 -16.34375 C 6.921875 -22.132812 5.5625 -29.238281 5.5625 -37.65625 C 5.5625 -46.3125 6.960938 -53.515625 9.765625 -59.265625 C 12.566406 -65.023438 16.285156 -69.335938 20.921875 -72.203125 C 25.554688 -75.066406 30.628906 -76.5 36.140625 -76.5 C 40.367188 -76.5 43.898438 -75.785156 46.734375 -74.359375 C 49.566406 -72.929688 51.859375 -71.171875 53.609375 -69.078125 C 55.367188 -66.984375 56.707031 -64.898438 57.625 -62.828125 L 58.265625 -62.828125 L 58.265625 -100.6875 L 79.15625 -100.6875 L 79.15625 0 L 58.515625 0 L 58.515625 -12.09375 L 57.625 -12.09375 C 56.675781 -10 55.300781 -7.925781 53.5 -5.875 C 51.695312 -3.820312 49.375 -2.125 46.53125 -0.78125 C 43.695312 0.5625 40.25 1.234375 36.1875 1.234375 Z M 42.828125 -15.4375 C 47.867188 -15.4375 51.773438 -17.476562 54.546875 -21.5625 C 57.316406 -25.644531 58.703125 -31.046875 58.703125 -37.765625 C 58.703125 -44.515625 57.320312 -49.878906 54.5625 -53.859375 C 51.8125 -57.835938 47.898438 -59.828125 42.828125 -59.828125 C 37.648438 -59.828125 33.707031 -57.785156 31 -53.703125 C 28.289062 -49.628906 26.9375 -44.316406 26.9375 -37.765625 C 26.9375 -31.171875 28.296875 -25.800781 31.015625 -21.65625 C 33.742188 -17.507812 37.679688 -15.4375 42.828125 -15.4375 Z M 42.828125 -15.4375 "/></g></g></g><g fill="#2c6bd6" fill-opacity="1"><g transform="translate(993.382638, 967.946849)"><g><path d="M 42.78125 1.46875 C 35.039062 1.46875 28.367188 -0.109375 22.765625 -3.265625 C 17.160156 -6.429688 12.847656 -10.921875 9.828125 -16.734375 C 6.816406 -22.554688 5.3125 -29.453125 5.3125 -37.421875 C 5.3125 -45.179688 6.816406 -51.992188 9.828125 -57.859375 C 12.847656 -63.734375 17.101562 -68.304688 22.59375 -71.578125 C 28.082031 -74.859375 34.53125 -76.5 41.9375 -76.5 C 48.59375 -76.5 54.597656 -75.085938 59.953125 -72.265625 C 65.316406 -69.453125 69.570312 -65.203125 72.71875 -59.515625 C 75.863281 -53.828125 77.4375 -46.707031 77.4375 -38.15625 L 77.4375 -32.40625 L 26.015625 -32.40625 L 26.015625 -32.359375 C 26.015625 -26.710938 27.550781 -22.265625 30.625 -19.015625 C 33.707031 -15.773438 37.875 -14.15625 43.125 -14.15625 C 46.625 -14.15625 49.648438 -14.890625 52.203125 -16.359375 C 54.765625 -17.835938 56.570312 -20.019531 57.625 -22.90625 L 77 -21.640625 C 75.519531 -14.617188 71.78125 -9.007812 65.78125 -4.8125 C 59.78125 -0.625 52.113281 1.46875 42.78125 1.46875 Z M 26.015625 -45.375 L 57.71875 -45.375 C 57.6875 -49.863281 56.242188 -53.566406 53.390625 -56.484375 C 50.546875 -59.410156 46.84375 -60.875 42.28125 -60.875 C 37.625 -60.875 33.804688 -59.363281 30.828125 -56.34375 C 27.847656 -53.332031 26.242188 -49.675781 26.015625 -45.375 Z M 26.015625 -45.375 "/></g></g></g><g fill="#2c6bd6" fill-opacity="1"><g transform="translate(1063.802958, 967.946849)"><g><path d="M 8.359375 0 L 8.359375 -75.515625 L 28.671875 -75.515625 L 28.671875 -62.34375 L 29.453125 -62.34375 C 30.828125 -67.03125 33.128906 -70.578125 36.359375 -72.984375 C 39.585938 -75.398438 43.332031 -76.609375 47.59375 -76.609375 C 49.625 -76.609375 51.507812 -76.359375 53.25 -75.859375 C 54.988281 -75.367188 56.546875 -74.695312 57.921875 -73.84375 L 51.625 -56.546875 C 50.644531 -57.035156 49.570312 -57.453125 48.40625 -57.796875 C 47.238281 -58.140625 45.9375 -58.3125 44.5 -58.3125 C 40.269531 -58.3125 36.6875 -56.867188 33.75 -53.984375 C 30.820312 -51.097656 29.335938 -47.34375 29.296875 -42.71875 L 29.296875 0 Z M 8.359375 0 "/></g></g></g><g clip-path="url(#e501a99c51)"><path fill="#2c6bd6" d="M 749.621094 506.523438 C 748.179688 506.691406 746.839844 507.34375 745.816406 508.375 L 581.359375 672.835938 C 578.871094 675.34375 578.894531 679.394531 581.40625 681.878906 C 582.597656 683.058594 584.207031 683.722656 585.882812 683.730469 L 620.625 683.730469 L 620.625 800.703125 C 620.632812 804.214844 623.480469 807.0625 626.996094 807.074219 L 873.691406 807.074219 C 877.203125 807.0625 880.050781 804.214844 880.0625 800.703125 L 880.0625 683.730469 L 914.804688 683.730469 C 918.335938 683.71875 921.1875 680.84375 921.175781 677.3125 C 921.167969 675.632812 920.507812 674.027344 919.328125 672.835938 L 879.238281 632.75 L 879.238281 577.859375 C 879.230469 574.347656 876.378906 571.5 872.867188 571.488281 L 845.730469 571.488281 C 842.21875 571.5 839.375 574.347656 839.359375 577.859375 L 839.359375 592.867188 L 754.863281 508.375 C 753.492188 506.992188 751.558594 506.308594 749.621094 506.523438 Z M 749.621094 506.523438 " fill-opacity="1" fill-rule="nonzero"/></g><g clip-path="url(#95ca6ca7da)"><path fill="#f6f0ff" d="M 750 645.398438 C 718.691406 645.398438 693.296875 670.792969 693.296875 702.101562 C 693.296875 744.628906 750 807.410156 750 807.410156 C 750 807.410156 806.703125 744.628906 806.703125 702.101562 C 806.703125 670.792969 781.308594 645.398438 750 645.398438 Z M 750 722.351562 C 738.820312 722.351562 729.75 713.28125 729.75 702.101562 C 729.75 690.921875 738.820312 681.847656 750 681.847656 C 761.179688 681.847656 770.25 690.921875 770.25 702.101562 C 770.25 713.28125 761.179688 722.351562 750 722.351562 Z M 750 722.351562 " fill-opacity="1" fill-rule="nonzero"/></g><g transform="matrix(1, 0, 0, 1, 389, 833)"><g clip-path="url(#3870383774)"><g fill="#000000" fill-opacity="1"><g transform="translate(0.748676, 132.696791)"><g><path d="M 8.75 0 L 8.75 -100.6875 L 30.046875 -100.6875 L 30.046875 -59.140625 L 73.265625 -59.140625 L 73.265625 -100.6875 L 94.5 -100.6875 L 94.5 0 L 73.265625 0 L 73.265625 -41.59375 L 30.046875 -41.59375 L 30.046875 0 Z M 8.75 0 "/></g></g></g><g fill="#000000" fill-opacity="1"><g transform="translate(91.701456, 132.696791)"><g><path d="M 42.484375 1.46875 C 34.847656 1.46875 28.25 -0.160156 22.6875 -3.421875 C 17.132812 -6.679688 12.847656 -11.234375 9.828125 -17.078125 C 6.816406 -22.929688 5.3125 -29.726562 5.3125 -37.46875 C 5.3125 -45.269531 6.816406 -52.09375 9.828125 -57.9375 C 12.847656 -63.789062 17.132812 -68.347656 22.6875 -71.609375 C 28.25 -74.867188 34.847656 -76.5 42.484375 -76.5 C 50.117188 -76.5 56.710938 -74.867188 62.265625 -71.609375 C 67.828125 -68.347656 72.113281 -63.789062 75.125 -57.9375 C 78.144531 -52.09375 79.65625 -45.269531 79.65625 -37.46875 C 79.65625 -29.726562 78.144531 -22.929688 75.125 -17.078125 C 72.113281 -11.234375 67.828125 -6.679688 62.265625 -3.421875 C 56.710938 -0.160156 50.117188 1.46875 42.484375 1.46875 Z M 42.578125 -14.75 C 47.753906 -14.75 51.675781 -16.910156 54.34375 -21.234375 C 57.019531 -25.566406 58.359375 -31.023438 58.359375 -37.609375 C 58.359375 -44.203125 57.019531 -49.671875 54.34375 -54.015625 C 51.675781 -58.359375 47.753906 -60.53125 42.578125 -60.53125 C 37.296875 -60.53125 33.3125 -58.359375 30.625 -54.015625 C 27.9375 -49.671875 26.59375 -44.203125 26.59375 -37.609375 C 26.59375 -31.023438 27.9375 -25.566406 30.625 -21.234375 C 33.3125 -16.910156 37.296875 -14.75 42.578125 -14.75 Z M 42.578125 -14.75 "/></g></g></g><g fill="#000000" fill-opacity="1"><g transform="translate(164.319339, 132.696791)"><g><path d="M 8.359375 0 L 8.359375 -75.515625 L 28.3125 -75.515625 L 28.3125 -62.203125 L 29.203125 -62.203125 C 30.773438 -66.648438 33.40625 -70.144531 37.09375 -72.6875 C 40.78125 -75.226562 45.164062 -76.5 50.25 -76.5 C 55.425781 -76.5 59.832031 -75.210938 63.46875 -72.640625 C 67.113281 -70.066406 69.539062 -66.585938 70.75 -62.203125 L 71.53125 -62.203125 C 73.070312 -66.523438 75.867188 -69.988281 79.921875 -72.59375 C 83.972656 -75.195312 88.765625 -76.5 94.296875 -76.5 C 101.347656 -76.5 107.078125 -74.257812 111.484375 -69.78125 C 115.890625 -65.3125 118.09375 -58.984375 118.09375 -50.796875 L 118.09375 0 L 97.203125 0 L 97.203125 -46.65625 C 97.203125 -50.851562 96.085938 -54 93.859375 -56.09375 C 91.628906 -58.195312 88.84375 -59.25 85.5 -59.25 C 81.695312 -59.25 78.726562 -58.035156 76.59375 -55.609375 C 74.46875 -53.179688 73.40625 -50.019531 73.40625 -46.125 L 73.40625 0 L 53.09375 0 L 53.09375 -47.109375 C 53.09375 -50.804688 52.035156 -53.753906 49.921875 -55.953125 C 47.804688 -58.148438 45.03125 -59.25 41.59375 -59.25 C 38.125 -59.25 35.207031 -57.976562 32.84375 -55.4375 C 30.476562 -52.894531 29.296875 -49.523438 29.296875 -45.328125 L 29.296875 0 Z M 8.359375 0 "/></g></g></g><g fill="#000000" fill-opacity="1"><g transform="translate(278.22764, 132.696791)"><g><path d="M 42.78125 1.46875 C 35.039062 1.46875 28.367188 -0.109375 22.765625 -3.265625 C 17.160156 -6.429688 12.847656 -10.921875 9.828125 -16.734375 C 6.816406 -22.554688 5.3125 -29.453125 5.3125 -37.421875 C 5.3125 -45.179688 6.816406 -51.992188 9.828125 -57.859375 C 12.847656 -63.734375 17.101562 -68.304688 22.59375 -71.578125 C 28.082031 -74.859375 34.53125 -76.5 41.9375 -76.5 C 48.59375 -76.5 54.597656 -75.085938 59.953125 -72.265625 C 65.316406 -69.453125 69.570312 -65.203125 72.71875 -59.515625 C 75.863281 -53.828125 77.4375 -46.707031 77.4375 -38.15625 L 77.4375 -32.40625 L 26.015625 -32.40625 L 26.015625 -32.359375 C 26.015625 -26.710938 27.550781 -22.265625 30.625 -19.015625 C 33.707031 -15.773438 37.875 -14.15625 43.125 -14.15625 C 46.625 -14.15625 49.648438 -14.890625 52.203125 -16.359375 C 54.765625 -17.835938 56.570312 -20.019531 57.625 -22.90625 L 77 -21.640625 C 75.519531 -14.617188 71.78125 -9.007812 65.78125 -4.8125 C 59.78125 -0.625 52.113281 1.46875 42.78125 1.46875 Z M 26.015625 -45.375 L 57.71875 -45.375 C 57.6875 -49.863281 56.242188 -53.566406 53.390625 -56.484375 C 50.546875 -59.410156 46.84375 -60.875 42.28125 -60.875 C 37.625 -60.875 33.804688 -59.363281 30.828125 -56.34375 C 27.847656 -53.332031 26.242188 -49.675781 26.015625 -45.375 Z M 26.015625 -45.375 "/></g></g></g></g></g></svg>