<svg xmlns="http://www.w3.org/2000/svg" viewBox="579 506 342 302" preserveAspectRatio="xMidYMid meet">
  <path fill="#ffffff" fill-rule="evenodd" d="M 749.621094 506.523438 C 748.179688 506.691406 746.839844 507.34375 745.816406 508.375 L 581.359375 672.835938 C 578.871094 675.34375 578.894531 679.394531 581.40625 681.878906 C 582.597656 683.058594 584.207031 683.722656 585.882812 683.730469 L 620.625 683.730469 L 620.625 800.703125 C 620.632812 804.214844 623.480469 807.0625 626.996094 807.074219 L 873.691406 807.074219 C 877.203125 807.0625 880.050781 804.214844 880.0625 800.703125 L 880.0625 683.730469 L 914.804688 683.730469 C 918.335938 683.71875 921.1875 680.84375 921.175781 677.3125 C 921.167969 675.632812 920.507812 674.027344 919.328125 672.835938 L 879.238281 632.75 L 879.238281 577.859375 C 879.230469 574.347656 876.378906 571.5 872.867188 571.488281 L 845.730469 571.488281 C 842.21875 571.5 839.375 574.347656 839.359375 577.859375 L 839.359375 592.867188 L 754.863281 508.375 C 753.492188 506.992188 751.558594 506.308594 749.621094 506.523438 Z M 750 645.398438 C 718.691406 645.398438 693.296875 670.792969 693.296875 702.101562 C 693.296875 744.628906 750 807.410156 750 807.410156 C 750 807.410156 806.703125 744.628906 806.703125 702.101562 C 806.703125 670.792969 781.308594 645.398438 750 645.398438 Z M 750 722.351562 C 738.820312 722.351562 729.75 713.28125 729.75 702.101562 C 729.75 690.921875 738.820312 681.847656 750 681.847656 C 761.179688 681.847656 770.25 690.921875 770.25 702.101562 C 770.25 713.28125 761.179688 722.351562 750 722.351562 Z"/>
</svg>
